<svg viewBox="0 0 96 96" xmlns="http://www.w3.org/2000/svg" xmlns:xlink="http://www.w3.org/1999/xlink" id="Icons_Yoga1" overflow="hidden"><path d="M89.962 21.974C89.6659 19.7904 87.6556 18.2603 85.472 18.5564 85.4657 18.5572 85.4593 18.5581 85.453 18.559 60.6124 21.9043 35.4336 21.8781 10.6 18.481 8.41019 18.1886 6.39794 19.7267 6.1055 21.9165 5.81307 24.1063 7.35119 26.1186 9.541 26.411 19.4337 27.731 29.2767 28.5553 39.07 28.884L39.07 55.063 39.07 55.063 39.07 89.063C39.07 91.2721 40.8609 93.063 43.07 93.063 45.2791 93.063 47.07 91.2721 47.07 89.063L47.07 75.063 67.07 75.063C69.2791 75.063 71.07 73.2721 71.0699 71.0629 71.0699 70.209 70.7966 69.3774 70.29 68.69L57.074 50.749 57.074 28.919C66.9351 28.6381 76.7737 27.8246 86.547 26.482 88.7346 26.1797 90.2633 24.1617 89.962 21.974ZM47.074 67.063 47.074 55.063 50.316 55.063 59.158 67.063Z"/><circle cx="48.074" cy="11" r="8"/></svg>